<svg xmlns="http://www.w3.org/2000/svg" width="48" height="44">
    <defs>
        <filter id="9u7i75d01a">
            <feFlood flood-color="#C7B299" flood-opacity="1" result="floodOut"/>
            <feComposite in="floodOut" in2="SourceGraphic" operator="atop" result="compOut"/>
            <feBlend in="compOut" in2="SourceGraphic"/>
        </filter>
    </defs>
    <g>
        <path fill-rule="evenodd" d="M46.043 42.749c0 .691-.552 1.251-1.234 1.251H1.234C.553 44 0 43.44 0 42.749c0-.691.553-1.251 1.234-1.251h43.575c.682 0 1.234.56 1.234 1.251zM21.769 22.213c.238.225.54.336.842.336.33 0 .659-.133.902-.397.465-.505.438-1.297-.06-1.768-2.116-2.002-1.663-6.07.155-8.37 2.467-3.12 3.01-8.683-.155-11.677-.498-.471-1.279-.444-1.744.061-.465.506-.438 1.297.06 1.768 1.901 1.798 1.858 5.823-.087 8.284-1.278 1.617-2.042 3.784-2.096 5.946-.06 2.363.716 4.429 2.183 5.817zM48 19.614v2.4c0 3.441-2.761 6.239-6.154 6.239h-2.755c-1.87 5.271-6.851 9.051-12.686 9.051h-6.766c-7.431 0-13.476-6.129-13.476-13.662v-12.41c0-.691.552-1.251 1.234-1.251h7.915c1.606-2.476 1.535-6.127-.249-7.815-.498-.471-.525-1.262-.06-1.768.464-.505 1.245-.532 1.744-.061 3.164 2.994 2.621 8.557.155 11.677-1.819 2.3-2.272 6.369-.155 8.37.498.471.525 1.263.06 1.768-.465.505-1.246.532-1.744.061-1.468-1.388-2.243-3.454-2.184-5.817.034-1.347.343-2.696.881-3.913H8.63v11.159c0 6.154 4.939 11.16 11.009 11.16h6.766c6.07 0 11.008-5.006 11.008-11.16V12.483h-9.278c-.682 0-1.234-.56-1.234-1.251 0-.691.552-1.251 1.234-1.251h10.512c.682 0 1.234.56 1.234 1.251v2.143h1.965c3.393 0 6.154 2.799 6.154 6.239zm-2.468 0c0-2.06-1.654-3.737-3.686-3.737h-1.965v9.874h1.965c2.032 0 3.686-1.676 3.686-3.737v-2.4z"/>
    </g>
</svg>
