<svg xmlns="http://www.w3.org/2000/svg" width="44" height="44">
    <defs>
        <filter id="fogkf2um0a">
            <feFlood flood-color="#C7B299" flood-opacity="1" result="floodOut"/>
            <feComposite in="floodOut" in2="SourceGraphic" operator="atop" result="compOut"/>
            <feBlend in="compOut" in2="SourceGraphic"/>
        </filter>
    </defs>
    <g>
        <path fill-rule="evenodd" d="M19.937 30.25c5.688 0 10.313-5.629 10.313-12.547 0-6.919-4.625-12.547-10.313-12.547-2.813 0-5.439 1.346-7.394 3.788-1.883 2.354-2.919 5.464-2.918 8.759 0 6.919 4.625 12.547 10.312 12.547zm0-22.344c4.17 0 7.563 4.394 7.563 9.797 0 5.403-3.393 9.797-7.563 9.797-4.169 0-7.562-4.394-7.565-9.797 0-5.403 3.393-9.797 7.565-9.797zm8.661 20.969c-.76 0-1.375.615-1.375 1.375s.615 1.375 1.375 1.375c4.701 0 8.527 3.825 8.527 8.528 0 .602-.494 1.097-1.101 1.097H3.848c-.605 0-1.098-.492-1.098-1.097 0-4.703 3.824-8.528 8.524-8.528.76 0 1.375-.615 1.375-1.375s-.615-1.375-1.375-1.375C5.057 28.875 0 33.934 0 40.153 0 42.274 1.727 44 3.848 44h32.176c2.123 0 3.851-1.726 3.851-3.847 0-6.219-5.06-11.278-11.277-11.278zM20.943 3.629c.984-.584 2.033-.878 3.119-.878 4.17 0 7.563 4.395 7.563 9.796 0 .969-.107 1.919-.32 2.828-.174.739.285 1.479 1.024 1.652.106.027.21.037.315.037.624 0 1.189-.428 1.338-1.06.259-1.115.393-2.278.393-3.457C34.375 5.629 29.75 0 24.062 0c-1.563 0-3.124.435-4.518 1.261-.655.386-.87 1.23-.484 1.883.387.654 1.232.871 1.883.485zM33 23.375c-.76 0-1.375.615-1.375 1.375s.615 1.375 1.375 1.375c4.701 0 8.25 3.918 8.25 8.618 0 .156-.03.31-.094.448-.308.696.005 1.507.698 1.815.18.081.371.119.559.119.526 0 1.028-.306 1.257-.817.218-.494.33-1.02.33-1.568 0-6.213-4.783-11.365-11-11.365z"/>
    </g>
</svg>
