<svg xmlns="http://www.w3.org/2000/svg" width="44" height="44">
    <defs>
        <filter id="rq5ea7581a">
            <feFlood flood-color="#C7B299" flood-opacity="1" result="floodOut"/>
            <feComposite in="floodOut" in2="SourceGraphic" operator="atop" result="compOut"/>
            <feBlend in="compOut" in2="SourceGraphic"/>
        </filter>
    </defs>
    <g>
        <path fill-rule="evenodd" d="M28.873 23.374H15.126c-.759 0-1.375.616-1.375 1.374 0 .76.616 1.376 1.375 1.376h13.747c.759 0 1.375-.616 1.375-1.376 0-.758-.616-1.374-1.375-1.374zm2.749-8.248H12.376c-.759 0-1.375.615-1.375 1.375 0 .758.616 1.374 1.375 1.374h19.246c.76 0 1.375-.616 1.375-1.374 0-.76-.615-1.375-1.375-1.375zM21.999.003C9.852.003.003 8.62.003 19.25c0 6.075 3.224 11.483 8.249 15.011v9.734l9.635-5.846c1.334.219 2.706.347 4.112.347 12.149 0 21.996-8.617 21.996-19.246C43.995 8.62 34.148.003 21.999.003zm0 35.744c-1.606 0-3.156-.187-4.646-.505l-6.473 3.891.087-6.377c-4.962-2.984-8.214-7.917-8.214-13.506 0-9.111 8.617-16.497 19.246-16.497 10.63 0 19.247 7.386 19.247 16.497 0 9.11-8.617 16.497-19.247 16.497z"/>
    </g>
</svg>
