<svg xmlns="http://www.w3.org/2000/svg" width="44" height="44">
    <defs>
        <filter id="kymsza1zza">
            <feFlood flood-color="#C7B299" flood-opacity="1" result="floodOut"/>
            <feComposite in="floodOut" in2="SourceGraphic" operator="atop" result="compOut"/>
            <feBlend in="compOut" in2="SourceGraphic"/>
        </filter>
    </defs>
    <g>
        <path fill-rule="evenodd" d="M30.25 0c-.424 0-.847.026-1.268.064-.154.014-.306.036-.459.057-.258.031-.513.07-.768.117-.188.034-.372.073-.552.114-.211.048-.42.104-.63.162-.198.055-.396.109-.59.172-.178.058-.349.127-.524.193-.459.172-.908.366-1.343.582-.086.042-.176.081-.26.127-.229.121-.449.255-.672.388-.121.074-.244.144-.365.222-.215.138-.422.285-.628.434-.062.045-.128.086-.191.132C19.623.975 16.735 0 13.75 0 6.168 0 0 6.166 0 13.75c0 12.445 8.002 23.702 21.406 30.113.188.091.392.137.594.137.202 0 .405-.046.594-.137C35.997 37.452 44 26.195 44 13.75 44 6.166 37.831 0 30.25 0zM22 41.097C9.934 35.108 2.75 24.927 2.75 13.75c0-6.066 4.935-11 11-11 2.219 0 4.368.684 6.19 1.933-2.135 2.424-3.44 5.592-3.44 9.067 0 .759.614 1.375 1.375 1.375s1.375-.616 1.375-1.375c0-3.274 1.446-6.211 3.723-8.227.211-.188.432-.366.654-.536.051-.036.101-.075.152-.113.219-.159.443-.312.673-.454.063-.04.126-.079.191-.116.221-.133.448-.258.678-.373.079-.04.161-.079.241-.117.221-.104.443-.203.67-.293.1-.04.202-.076.305-.113.214-.077.428-.149.646-.212.133-.038.262-.071.395-.103.197-.049.392-.1.593-.14.182-.033.366-.057.548-.084.156-.023.312-.049.47-.066.349-.032.704-.053 1.061-.053 6.065 0 11 4.934 11 11 0 11.177-7.184 21.358-19.25 27.347zM30.25 5.5c-.76 0-1.375.616-1.375 1.375 0 .758.615 1.375 1.375 1.375 3.033 0 5.5 2.466 5.5 5.5 0 .759.615 1.375 1.375 1.375s1.375-.616 1.375-1.375c0-4.55-3.701-8.25-8.25-8.25z"/>
    </g>
</svg>
